PathFileType	4	(X/Y/Z)	HSS_walk5.trc
DataRate	CameraRate	NumFrames	NumMarkers	Units	OrigDataRate	OrigDataStartFrame	OrigNumFrames
120.0	120.0	7	44	mm	120.0	541	1080
Frame#	Time		R.Shoulder		Offset		L.Shoulder		R.Elbow		R.Wrist.Radial		R.Wrist		R.Hand		L.Elbow		L.Wrist.Radial		L.Wrist		L.Hand		R.Hip		V.Sacral		L.PSIS		L.Hip		R.Thigh.Upper		R.Thigh.Front		R.Thigh.Rear		X.Shell.Lower.Thigh.Right		R.Knee.Lateral		R.Shank.Upper		R.Shank.Front		R.Shank.Rear		X.Shell.Lower.Shank.Right		R.Ankle.Lateral		R.Heel		R.Toe		L.Thigh.Upper		L.Thigh.Front		L.Thigh.Rear		X.Shell.Lower.Thigh.Left		L.Knee.Lateral		L.Shank.Upper		L.Shank.Front		L.Shank.Rear		X.Shell.Lower.Shank.Left		L.Ankle.Lateral		L.Heel		L.Toe		R.Troc		L.Troc		R.PSIS		L.ASIS		R.ASIS
			X1	Y1	Z1	X2	Y2	Z2	X3	Y3	Z3	X4	Y4	Z4	X5	Y5	Z5	X6	Y6	Z6	X7	Y7	Z7	X8	Y8	Z8	X9	Y9	Z9	X10	Y10	Z10	X11	Y11	Z11	X12	Y12	Z12	X13	Y13	Z13	X14	Y14	Z14	X15	Y15	Z15	X16	Y16	Z16	X17	Y17	Z17	X18	Y18	Z18	X19	Y19	Z19	X20	Y20	Z20	X21	Y21	Z21	X22	Y22	Z22	X23	Y23	Z23	X24	Y24	Z24	X25	Y25	Z25	X26	Y26	Z26	X27	Y27	Z27	X28	Y28	Z28	X29	Y29	Z29	X30	Y30	Z30	X31	Y31	Z31	X32	Y32	Z32	X33	Y33	Z33	X34	Y34	Z34	X35	Y35	Z35	X36	Y36	Z36	X37	Y37	Z37	X38	Y38	Z38	X39	Y39	Z39	X40	Y40	Z40	X41	Y41	Z41	X42	Y42	Z42	X43	Y43	Z43	X44	Y44	Z44

541	4.50000	-627.26514	1453.42834	-28.66455	-766.12122	1367.62805	-299.49399	-643.22498	1456.44958	-399.90707	-633.80566	1084.04797	30.14380	-433.25192	916.71771	18.75842	-470.63995	893.52917	78.74621	-399.57678	844.21490	76.56306	-752.42816	1113.51636	-417.85907	-751.29370	886.11053	-497.15588	-709.51440	863.66925	-442.33502	-741.77722	797.42432	-493.31445	-639.12280	1004.98517	-58.28213	-745.49731	993.45868	-220.84181	-740.73859	1003.05200	-260.31549	-610.69983	1016.52496	-351.97485	-626.11115	655.89105	-26.41192	-591.59668	617.44995	-35.26559	-651.33392	618.38074	-19.64519	-622.37317	584.27704	-31.56591	-696.20966	481.96497	-43.70895	-808.79834	380.80264	-4.14566	-817.19562	329.27124	-26.42078	-855.04291	376.56738	-22.75920	-866.19373	331.50018	-30.71592	-1029.26697	184.86684	-86.06094	-1074.95349	204.53795	-142.12006	-992.71265	37.09702	-103.94949	-467.41055	700.66937	-361.21747	-435.75137	662.12402	-332.37994	-480.65930	656.43365	-376.42642	-447.13794	632.85876	-357.70959	-477.52533	504.41595	-332.65234	-483.03134	300.55673	-364.73242	-455.74338	279.69012	-342.29553	-511.51346	259.68567	-353.20154	-485.99234	231.07678	-351.06540	-466.99860	69.51041	-298.26147	-524.56268	32.93843	-253.39009	-324.58389	33.25650	-282.49844	-648.22412	845.58673	-30.05139	-577.58423	886.09979	-384.86548	-750.20355	997.48444	-174.98460	-548.32440	982.98236	-302.76703	-582.11072	965.00922	-85.35554
542	4.50833	-617.16510	1455.79382	-30.29419	-755.00787	1369.12549	-301.53522	-631.91949	1458.32385	-401.14200	-626.36029	1086.81909	28.38260	-429.11880	915.74744	18.22149	-467.21777	893.25446	78.06170	-397.45566	842.24060	76.28555	-737.60883	1113.95850	-418.77740	-732.21716	886.03552	-496.70349	-689.26093	864.49304	-442.66891	-720.97607	797.52545	-492.58139	-628.14917	1006.72534	-59.05773	-734.66559	994.94757	-221.23802	-729.75958	1004.67078	-260.83972	-599.55951	1017.81378	-352.50201	-609.98395	656.45166	-26.24060	-574.62854	618.82336	-34.38763	-634.50098	618.46997	-19.31537	-604.49829	584.99261	-30.85435	-675.68695	481.70596	-43.36220	-788.71857	382.49847	-4.09122	-797.92780	331.15125	-26.22776	-835.00250	379.05930	-22.33220	-846.81104	334.20428	-30.61767	-1012.92682	192.03215	-86.85178	-1054.82214	216.47525	-143.32332	-988.26196	41.34870	-104.25742	-459.81989	700.20160	-363.05908	-428.30823	661.14117	-334.83832	-473.97812	655.71790	-377.78830	-440.72778	632.16882	-359.75769	-472.32690	504.30984	-333.75653	-480.06674	300.53482	-365.73141	-453.21194	279.44540	-343.25870	-509.07687	259.94666	-354.10318	-483.96460	231.10391	-351.88010	-466.94083	69.43420	-298.34412	-524.63306	32.94052	-253.51987	-324.49023	33.08049	-282.52472	-635.18988	845.66766	-31.69041	-567.96265	886.49634	-385.81659	-740.06006	999.04962	-175.74251	-537.57642	984.55029	-303.48013	-571.38440	966.47760	-86.06500
543	4.51667	-607.60687	1457.94556	-31.64775	-743.93134	1370.56458	-303.60144	-620.56000	1460.15625	-402.33118	-619.17596	1089.43262	26.69026	-425.35162	914.35071	17.68107	-463.99524	892.93762	77.60571	-395.31512	840.19495	75.76151	-722.76416	1114.11572	-419.70200	-712.64600	885.90338	-496.61676	-669.64124	865.45026	-442.11551	-699.45361	797.59943	-491.91141	-617.98108	1008.21924	-59.47197	-724.17792	996.47052	-221.80060	-719.08765	1006.16553	-261.41632	-588.46149	1019.14349	-353.15204	-593.88354	657.36047	-25.96893	-557.45398	620.43573	-33.64226	-617.59570	618.68829	-19.30754	-586.61292	585.92914	-30.38496	-654.94867	481.82559	-43.00731	-768.02875	384.14053	-4.11213	-777.96509	333.08380	-26.42353	-814.41339	381.53445	-22.19905	-826.89087	336.87274	-30.37112	-996.24994	199.89856	-87.90717	-1032.76135	227.64958	-144.99948	-982.21448	46.20324	-104.99696	-452.35727	699.81555	-364.38132	-421.07233	660.13684	-336.53381	-467.47461	656.01233	-379.05789	-434.36215	631.40198	-361.37515	-467.38892	504.25250	-334.54395	-477.19708	300.21313	-366.61636	-450.45505	279.05417	-344.04495	-506.72897	260.10455	-354.89429	-481.97385	230.90672	-352.49527	-466.87088	69.42551	-298.46365	-524.70740	32.92427	-253.68501	-324.43253	32.93523	-282.53323	-624.02130	845.97986	-31.91986	-558.40741	886.59277	-386.82315	-728.85382	1000.38354	-176.23691	-526.96442	985.93903	-304.29654	-560.61121	967.84625	-86.96043
544	4.52500	-598.32672	1459.90613	-32.85490	-732.96991	1371.86328	-305.58643	-609.28674	1461.73669	-403.41946	-612.04517	1091.77783	25.40264	-421.55447	913.00598	17.25371	-460.64932	892.75446	77.25174	-393.50354	838.27545	75.19677	-707.73395	1114.20081	-420.95071	-692.63409	885.64203	-496.23706	-649.35864	866.44543	-441.77170	-677.46362	797.78296	-491.48636	-608.39502	1009.07159	-59.91584	-713.70844	997.95563	-222.48962	-708.61926	1007.84283	-262.20715	-577.57556	1020.40204	-353.84970	-577.66437	658.37994	-25.86976	-540.29651	622.33801	-32.40909	-600.38074	619.14703	-19.46304	-568.66327	587.28406	-30.04431	-633.76727	482.33951	-42.68140	-746.94434	385.93176	-4.01951	-757.84576	335.28906	-26.63003	-793.49078	384.13577	-22.04232	-806.76483	339.63696	-30.23141	-978.32666	207.74861	-89.35779	-1010.36841	236.99544	-147.60568	-973.84583	52.00220	-105.00885	-444.92639	699.56812	-365.23248	-414.05612	659.37518	-337.52075	-460.92300	655.97406	-379.89056	-428.10239	630.86139	-362.17572	-462.40686	504.31421	-335.24359	-474.34058	299.88809	-367.35880	-448.01550	278.52991	-344.67184	-504.19861	260.07819	-355.57550	-479.69986	230.66307	-352.89667	-466.87732	69.42281	-298.61395	-524.80267	32.94114	-253.87769	-324.39493	32.76569	-282.45105	-612.37213	846.29840	-32.91366	-549.03400	886.84198	-387.35110	-718.38525	1001.61407	-176.99625	-516.26178	987.28644	-304.98972	-550.35553	969.26782	-87.21725
545	4.53333	-589.28595	1461.60828	-33.99786	-722.04645	1373.21448	-307.49646	-597.93854	1463.24048	-404.54416	-605.03180	1093.98999	24.11264	-417.97772	911.80988	16.84412	-457.31769	892.54492	77.00842	-391.46298	836.16272	74.64872	-692.75623	1114.04651	-422.23907	-672.15961	885.36969	-496.48956	-628.31555	867.52844	-441.68765	-654.83423	797.89636	-491.00165	-598.75574	1010.00629	-60.55768	-703.61578	999.25403	-223.19460	-698.13013	1009.47534	-262.93588	-567.25421	1021.82855	-354.59488	-561.28168	659.88226	-25.61705	-522.96179	624.64905	-32.68821	-583.21484	620.35620	-19.34630	-550.63654	588.88489	-29.80683	-612.69409	483.41504	-42.33989	-725.59644	388.09018	-4.24619	-737.01654	337.71161	-27.24960	-772.27509	386.95953	-21.99219	-786.00555	342.70914	-30.38824	-959.23877	214.49573	-91.44682	-987.50970	244.59300	-150.58978	-962.63062	57.38500	-104.35948	-437.39722	699.37524	-365.53690	-407.35919	658.73901	-337.91486	-454.09793	656.12598	-380.15775	-421.59259	630.45557	-362.63367	-457.90533	504.30652	-335.69327	-471.37012	299.63959	-368.00626	-445.37164	277.97733	-344.71301	-501.87317	260.31128	-356.40298	-477.63779	230.50124	-353.32565	-466.82764	69.40173	-298.71539	-524.89624	32.98265	-254.02235	-324.35980	32.61809	-282.33472	-600.85138	846.84460	-33.78111	-539.63898	887.13837	-388.04932	-707.96985	1002.71063	-177.89288	-505.92328	988.38812	-305.83871	-540.26794	970.70758	-87.69063
546	4.54167	-580.37885	1463.19385	-34.83122	-711.17151	1374.58191	-309.43402	-586.61438	1464.59253	-405.68231	-598.08923	1095.88708	23.10506	-414.53329	910.47278	16.45713	-453.95792	892.34100	76.75961	-389.63766	834.08099	73.88288	-677.57764	1113.74292	-423.72919	-651.32587	885.09253	-496.50140	-607.07068	868.45557	-441.72348	-631.58405	798.17657	-490.53229	-589.24707	1010.83624	-61.23637	-693.53760	1000.34167	-224.01607	-687.90033	1010.80835	-263.49991	-556.88849	1023.10596	-355.07373	-544.71545	661.87677	-25.49537	-505.77643	627.37579	-32.53236	-565.81506	621.74487	-19.27419	-532.72949	591.07422	-29.45237	-591.78107	484.77020	-42.07125	-704.14282	390.43973	-4.65131	-716.14954	340.26938	-27.79144	-750.87378	389.88214	-22.16983	-765.18256	345.78278	-30.61828	-939.87341	220.58514	-93.74272	-965.76593	250.37999	-153.74788	-947.54144	63.24401	-102.36617	-430.13202	699.29907	-365.44464	-400.73849	658.20020	-337.91406	-447.28375	656.31433	-380.34134	-415.26312	630.21045	-362.70520	-453.61258	504.20596	-336.03040	-468.60651	299.42972	-368.33710	-442.83499	277.60202	-345.11768	-499.65842	260.44836	-356.63593	-475.64536	230.32312	-353.48511	-466.76321	69.36141	-298.68195	-524.97479	33.04265	-254.08635	-324.30017	32.48693	-282.23117	-589.40619	847.63409	-34.42443	-530.18646	887.79883	-389.00522	-697.83899	1003.72626	-178.74907	-495.71649	989.55707	-305.90457	-530.91388	971.92047	-87.70333
547	4.55000	-571.54291	1464.61719	-35.52060	-700.47681	1375.97974	-311.48032	-575.29840	1465.72095	-406.73746	-591.67682	1097.73682	22.40606	-410.42551	909.53564	15.81255	-450.64948	892.18695	76.73085	-387.71735	832.09711	73.01252	-662.42328	1113.31982	-425.35339	-630.07947	884.79077	-496.65829	-585.20325	869.55994	-441.41519	-607.94019	798.46637	-490.48337	-579.98383	1011.92456	-61.82994	-683.44568	1001.47717	-224.64684	-677.66919	1012.15411	-264.24582	-546.88593	1024.45520	-356.14392	-528.14594	664.18011	-25.63924	-488.50513	630.42706	-32.28685	-548.48163	623.86572	-19.17229	-514.77417	593.63928	-29.07578	-570.92999	486.52405	-41.94331	-682.96411	392.83521	-5.05245	-695.33392	342.76389	-28.42113	-729.56671	392.76123	-22.60492	-744.20148	348.73257	-31.52818	-919.68909	226.15082	-96.14626	-945.41431	254.65224	-156.82330	-929.00513	68.73058	-100.19198	-422.98041	699.21130	-365.47736	-394.16873	657.57910	-337.22754	-440.57236	656.43738	-380.30609	-409.04135	629.91357	-362.49609	-449.34897	503.97949	-336.25531	-466.33319	299.27914	-368.45856	-440.76474	277.31754	-345.12112	-497.64117	260.67993	-356.79095	-474.01849	230.33351	-353.50128	-466.72568	69.33600	-298.60297	-525.03723	33.11200	-254.09921	-324.28030	32.37292	-282.09885	-577.57367	848.52393	-35.00416	-520.83411	888.75537	-390.18665	-687.56256	1004.71655	-179.67688	-485.73718	990.84656	-306.55106	-520.40906	973.82184	-87.91673
